<?xml version="1.0" encoding="utf-8"?>
<!-- Generator: Adobe Illustrator 19.1.0, SVG Export Plug-In . SVG Version: 6.00 Build 0)  -->
<svg version="1.1" id="beerjs-msp" xmlns="http://www.w3.org/2000/svg" xmlns:xlink="http://www.w3.org/1999/xlink" x="0px" y="0px"
	 viewBox="97 -155 344 460" style="enable-background:new 97 -155 344 460;" xml:space="preserve">
<style type="text/css">
	.st0{fill:#B5CDE3;}
	.st1{fill:#FBDE34;}
	.st2{fill:#FFFFFF;}
	.st3{fill:#343433;}
	.st4{font-family:'Avenir-Black';}
	.st5{font-size:36px;}
</style>
<g>
	<g>
		<path class="st0" d="M435-97.8c0.1-0.6,0.2-1.2,0.2-1.8c0-20.3-77.5-49.9-164.2-49.9s-168.6,28.1-168.6,48.4
			c0,0.6,0.1,1.2,0.2,1.8l47.8,334.4h0.1c0,0.5-0.1,1-0.1,1.5c0,34.8,54,63,120.6,63s120.6-28.2,120.6-63c0-0.5-0.1-1-0.1-1.5h0.1
			L435-97.8z"/>
		<path class="st1" d="M155,41.6l25.8,190.9c0,0,7.8,13.9,12.1,16.2c12.9,6.7,38.1,18.6,78.2,17.9c53.5-0.9,85.3-20.3,85.3-20.3
			l8.6-13.4l25.1-199.6L155,41.6z"/>
		<path class="st2" d="M144-52.4c3.7-6.9,10.1-16.4,17.5-20.9c7.4-4.5,53.6-19.3,113.5-18.8c59.8,0.5,106.8,17.6,113.7,25.2
			s12.5,22.3,12.5,22.3l-11.1,77.9c0,0-10.6,7.3-22.8,11.3c-12.2,4-46.4,0.8-56.5,5.2c-10.1,4.3-38.7,19.8-38.7,19.8
			s-25.9,20.7-53.2,14.7c-17.3-3.7-35.1-34.7-47.3-35.6c-9.5-0.7-15.6-3.9-15.6-3.9S140.3-45.5,144-52.4z"/>
		<path class="st2" d="M223.4,114.1c0,11-11.3,19.9-25.2,19.9c-13.9,0-25.2-8.9-25.2-19.9s11.3-19.9,25.2-19.9
			C212.2,94.3,223.4,103.1,223.4,114.1z"/>
		<path class="st2" d="M218.1,139.8c0,5.6-5.6,10.2-12.6,10.2s-12.6-4.6-12.6-10.2s5.6-10.2,12.6-10.2
			C212.5,129.6,218.1,134.2,218.1,139.8z"/>
	</g>
	<g>
		<path class="st3" d="M187.1,225.6l19-11.5c3.7,6.5,7,12,15,12c7.7,0,12.5-3,12.5-14.6v-79.2h23.2v79.5c0,24.1-14.1,35.1-34.8,35.1
			C203.4,246.9,192.6,237.2,187.1,225.6"/>
		<path class="st3" d="M269.5,223.1l19-11c5,8.2,11.5,14.1,23,14.1c9.6,0,15.8-4.8,15.8-11.5c0-8-6.3-10.8-17-15.5l-5.8-2.5
			c-16.8-7.1-27.9-16.1-27.9-35.1c0-17.5,13.3-30.8,34.1-30.8c14.8,0,25.5,5.2,33.1,18.6L325.7,161c-4-7.1-8.3-10-15-10
			c-6.8,0-11.1,4.3-11.1,10c0,7,4.3,9.8,14.3,14.1l5.8,2.5c19.8,8.5,30.9,17.1,30.9,36.6c0,21-16.5,32.4-38.6,32.4
			C290.3,246.9,276.3,236.6,269.5,223.1"/>
	</g>
</g>
<text transform="matrix(1 0 0 1 230.1682 -108)" class="st4 st5">MSP</text>
</svg>
